<svg width="102" height="102" viewBox="0 0 102 102" fill="none" xmlns="http://www.w3.org/2000/svg">
<path d="M101.25 62.1667V90.0833C101.25 93.0449 100.074 95.8852 97.9794 97.9794C95.8852 100.074 93.0449 101.25 90.0833 101.25H11.9167C8.95508 101.25 6.1148 100.074 4.02064 97.9794C1.92648 95.8852 0.75 93.0449 0.75 90.0833V11.9167C0.75 8.95508 1.92648 6.1148 4.02064 4.02064C6.1148 1.92648 8.95508 0.75 11.9167 0.75H39.8333V11.9167H11.9167V90.0833H90.0833V62.1667H101.25Z" fill="#636363"/>
<path d="M101.25 23.0833H78.9167V0.75H67.75V23.0833H45.4167V34.25H67.75V56.5833H78.9167V34.25H101.25V23.0833Z" fill="#636363"/>
</svg>
