<svg width="25" height="25" viewBox="0 0 25 25" fill="none" xmlns="http://www.w3.org/2000/svg">
<path d="M24.1689 12.252V12.246C24.1689 8.69495 22.6229 5.50595 20.1679 3.31295L20.1559 3.30295C20.1256 3.27027 20.0918 3.24108 20.0549 3.21595L20.0529 3.21495C17.8725 1.30048 15.0686 0.247298 12.1669 0.252952C9.13495 0.252952 6.36695 1.37895 4.25695 3.23695L4.26995 3.22595C4.24452 3.24524 4.22107 3.26702 4.19995 3.29095V3.29195C2.93148 4.41514 1.91614 5.79504 1.22121 7.34025C0.526271 8.88545 0.167598 10.5607 0.168949 12.255C0.168949 15.805 1.71295 18.994 4.16595 21.188L4.17795 21.198C4.20971 21.234 4.24525 21.2665 4.28395 21.295L4.28595 21.296C6.46579 23.2076 9.26763 24.2592 12.1669 24.254C15.0798 24.2584 17.8937 23.1971 20.0779 21.27L20.0649 21.281C21.3554 20.159 22.3898 18.773 23.0982 17.2166C23.8066 15.6603 24.1724 13.9699 24.1709 12.26V12.253L24.1689 12.252ZM19.7069 20.057C19.1125 19.5761 18.4732 19.1535 17.7979 18.795L17.7329 18.763C18.3459 16.996 18.7149 14.959 18.7499 12.84V12.824H23.0109C22.8673 15.5654 21.6873 18.1497 19.7099 20.054L19.7069 20.057ZM12.7409 18.552C14.0239 18.621 15.2229 18.903 16.3289 19.362L16.2569 19.336C15.3709 21.356 14.1239 22.744 12.7409 23.049V18.552ZM12.7409 17.408V12.824H17.6089C17.5703 14.7222 17.2412 16.6034 16.6329 18.402L16.6719 18.271C15.4304 17.7607 14.1099 17.469 12.7689 17.409L12.7419 17.408H12.7409ZM12.7409 11.68V7.09595C14.1181 7.0331 15.4739 6.73162 16.7479 6.20495L16.6689 6.23395C17.2239 7.85295 17.5649 9.71895 17.6089 11.659V11.68H12.7409ZM12.7409 5.95195V1.45695C14.1239 1.76195 15.3709 3.14395 16.2569 5.16995C15.2229 5.59995 14.0239 5.88095 12.7699 5.95095L12.7409 5.95195ZM15.5949 1.95195C16.7733 2.34499 17.8753 2.93761 18.8529 3.70395L18.8299 3.68595C18.3869 4.03395 17.8899 4.36195 17.3659 4.64695L17.3099 4.67495C16.8865 3.67568 16.3043 2.75142 15.5859 1.93795L15.5949 1.94895V1.95195ZM11.5949 1.45995V5.95195C10.3614 5.88903 9.14786 5.61506 8.00695 5.14195L8.07895 5.16795C8.96895 3.14795 10.2139 1.76095 11.5969 1.45595L11.5949 1.45995ZM7.02695 4.67195C6.48488 4.38031 5.96838 4.04345 5.48295 3.66495L5.50695 3.68295C6.45608 2.93911 7.52367 2.36035 8.66495 1.97095L8.74095 1.94795C8.04137 2.73939 7.47133 3.63646 7.05195 4.60595L7.02695 4.67095V4.67195ZM11.5969 7.09495V11.679H6.72895C6.77295 9.71795 7.11395 7.85195 7.70795 6.10195L7.66895 6.23295C8.91001 6.74242 10.2297 7.0337 11.5699 7.09395L11.5969 7.09495ZM11.5969 12.823V17.407C10.2198 17.4698 8.86398 17.7713 7.58995 18.298L7.66895 18.269C7.11395 16.651 6.77295 14.784 6.72895 12.844V12.823H11.5969ZM11.5969 18.551V23.046C10.2139 22.741 8.96695 21.359 8.08095 19.333C9.11495 18.903 10.3139 18.623 11.5679 18.553L11.5969 18.552V18.551ZM8.74695 22.551C7.5689 22.1591 6.46689 21.5678 5.48895 20.803L5.51295 20.821C5.95595 20.473 6.45295 20.145 6.97695 19.86L7.03295 19.832C7.45283 20.8316 8.03501 21.7551 8.75595 22.565L8.74695 22.555V22.551ZM17.3109 19.831C17.8909 20.146 18.3879 20.473 18.8549 20.838L18.8309 20.82C17.8818 21.5638 16.8142 22.1426 15.6729 22.532L15.5969 22.555C16.2965 21.7639 16.8666 20.8671 17.2859 19.898L17.3109 19.833V19.831ZM23.0109 11.68H18.7499C18.7193 9.6109 18.3622 7.55966 17.6919 5.60195L17.7329 5.73995C18.4394 5.36801 19.1081 4.92864 19.7299 4.42795L19.7059 4.44595C21.6792 6.34298 22.8596 8.91779 23.0089 11.651L23.0099 11.679L23.0109 11.68ZM4.63095 4.44695C5.20695 4.91495 5.85395 5.34395 6.53995 5.70895L6.60495 5.74095C5.99195 7.50795 5.62295 9.54495 5.58795 11.664V11.68H1.32595C1.46964 8.93855 2.6496 6.35416 4.62695 4.44995L4.62995 4.44695H4.63095ZM1.32695 12.824H5.58795C5.6186 14.893 5.97566 16.9442 6.64595 18.902L6.60495 18.764C5.85395 19.163 5.20795 19.592 4.60795 20.076L4.63195 20.058C2.65869 18.1609 1.47831 15.5861 1.32895 12.853L1.32795 12.825L1.32695 12.824Z" fill="#B40F00"/>
<path d="M24.1689 12.252V12.246C24.1689 8.69495 22.6229 5.50595 20.1679 3.31295L20.1559 3.30295C20.1256 3.27027 20.0918 3.24108 20.0549 3.21595L20.0529 3.21495C17.8725 1.30048 15.0686 0.247298 12.1669 0.252952C9.13495 0.252952 6.36695 1.37895 4.25695 3.23695L4.26995 3.22595C4.24452 3.24524 4.22107 3.26702 4.19995 3.29095V3.29195C2.93148 4.41514 1.91614 5.79504 1.22121 7.34025C0.526271 8.88545 0.167598 10.5607 0.168949 12.255C0.168949 15.805 1.71295 18.994 4.16595 21.188L4.17795 21.198C4.20971 21.234 4.24525 21.2665 4.28395 21.295L4.28595 21.296C6.46579 23.2076 9.26763 24.2592 12.1669 24.254C15.0798 24.2584 17.8937 23.1971 20.0779 21.27L20.0649 21.281C21.3554 20.159 22.3898 18.773 23.0982 17.2166C23.8066 15.6603 24.1724 13.9699 24.1709 12.26V12.253L24.1689 12.252ZM19.7069 20.057C19.1125 19.5761 18.4732 19.1535 17.7979 18.795L17.7329 18.763C18.3459 16.996 18.7149 14.959 18.7499 12.84V12.824H23.0109C22.8673 15.5654 21.6873 18.1497 19.7099 20.054L19.7069 20.057ZM12.7409 18.552C14.0239 18.621 15.2229 18.903 16.3289 19.362L16.2569 19.336C15.3709 21.356 14.1239 22.744 12.7409 23.049V18.552ZM12.7409 17.408V12.824H17.6089C17.5703 14.7222 17.2412 16.6034 16.6329 18.402L16.6719 18.271C15.4304 17.7607 14.1099 17.469 12.7689 17.409L12.7419 17.408H12.7409ZM12.7409 11.68V7.09595C14.1181 7.0331 15.4739 6.73162 16.7479 6.20495L16.6689 6.23395C17.2239 7.85295 17.5649 9.71895 17.6089 11.659V11.68H12.7409ZM12.7409 5.95195V1.45695C14.1239 1.76195 15.3709 3.14395 16.2569 5.16995C15.2229 5.59995 14.0239 5.88095 12.7699 5.95095L12.7409 5.95195ZM15.5949 1.95195C16.7733 2.34499 17.8753 2.93761 18.8529 3.70395L18.8299 3.68595C18.3869 4.03395 17.8899 4.36195 17.3659 4.64695L17.3099 4.67495C16.8865 3.67568 16.3043 2.75142 15.5859 1.93795L15.5949 1.94895V1.95195ZM11.5949 1.45995V5.95195C10.3614 5.88903 9.14786 5.61506 8.00695 5.14195L8.07895 5.16795C8.96895 3.14795 10.2139 1.76095 11.5969 1.45595L11.5949 1.45995ZM7.02695 4.67195C6.48488 4.38031 5.96838 4.04345 5.48295 3.66495L5.50695 3.68295C6.45608 2.93911 7.52367 2.36035 8.66495 1.97095L8.74095 1.94795C8.04137 2.73939 7.47133 3.63646 7.05195 4.60595L7.02695 4.67095V4.67195ZM11.5969 7.09495V11.679H6.72895C6.77295 9.71795 7.11395 7.85195 7.70795 6.10195L7.66895 6.23295C8.91001 6.74242 10.2297 7.0337 11.5699 7.09395L11.5969 7.09495ZM11.5969 12.823V17.407C10.2198 17.4698 8.86398 17.7713 7.58995 18.298L7.66895 18.269C7.11395 16.651 6.77295 14.784 6.72895 12.844V12.823H11.5969ZM11.5969 18.551V23.046C10.2139 22.741 8.96695 21.359 8.08095 19.333C9.11495 18.903 10.3139 18.623 11.5679 18.553L11.5969 18.552V18.551ZM8.74695 22.551C7.5689 22.1591 6.46689 21.5678 5.48895 20.803L5.51295 20.821C5.95595 20.473 6.45295 20.145 6.97695 19.86L7.03295 19.832C7.45283 20.8316 8.03501 21.7551 8.75595 22.565L8.74695 22.555V22.551ZM17.3109 19.831C17.8909 20.146 18.3879 20.473 18.8549 20.838L18.8309 20.82C17.8818 21.5638 16.8142 22.1426 15.6729 22.532L15.5969 22.555C16.2965 21.7639 16.8666 20.8671 17.2859 19.898L17.3109 19.833V19.831ZM23.0109 11.68H18.7499C18.7193 9.6109 18.3622 7.55966 17.6919 5.60195L17.7329 5.73995C18.4394 5.36801 19.1081 4.92864 19.7299 4.42795L19.7059 4.44595C21.6792 6.34298 22.8596 8.91779 23.0089 11.651L23.0099 11.679L23.0109 11.68ZM4.63095 4.44695C5.20695 4.91495 5.85395 5.34395 6.53995 5.70895L6.60495 5.74095C5.99195 7.50795 5.62295 9.54495 5.58795 11.664V11.68H1.32595C1.46964 8.93855 2.6496 6.35416 4.62695 4.44995L4.62995 4.44695H4.63095ZM1.32695 12.824H5.58795C5.6186 14.893 5.97566 16.9442 6.64595 18.902L6.60495 18.764C5.85395 19.163 5.20795 19.592 4.60795 20.076L4.63195 20.058C2.65869 18.1609 1.47831 15.5861 1.32895 12.853L1.32795 12.825L1.32695 12.824Z" fill="black" fill-opacity="0.2"/>
</svg>
