<svg width="40" height="41" viewBox="0 0 40 41" fill="none" xmlns="http://www.w3.org/2000/svg">
<path d="M27.3667 15.8039H20.3208C19.4875 15.7622 17.85 14.0414 16.9083 14.0414H12.7833C12.6623 14.0414 12.5424 14.0655 12.4308 14.1125C12.3193 14.1594 12.2182 14.2282 12.1336 14.3147C12.0489 14.4013 11.9825 14.5039 11.9381 14.6165C11.8937 14.7292 11.8722 14.8495 11.875 14.9705V14.9705V18.008H28.125V16.583C28.1272 16.4819 28.1093 16.3813 28.0722 16.2871C28.0351 16.1929 27.9797 16.1071 27.9091 16.0346C27.8385 15.962 27.7542 15.9043 27.6611 15.8647C27.5679 15.8251 27.4679 15.8044 27.3667 15.8039V15.8039Z" stroke="#636363" stroke-linecap="round" stroke-linejoin="round"/>
<path d="M28.125 18.0039H11.875V25.8039C11.8739 25.9235 11.8965 26.0422 11.9414 26.1531C11.9863 26.264 12.0526 26.3649 12.1367 26.4501C12.2207 26.5353 12.3207 26.603 12.4309 26.6494C12.5412 26.6958 12.6596 26.72 12.7792 26.7205H27.2167C27.3367 26.7205 27.4555 26.6968 27.5662 26.6506C27.677 26.6044 27.7775 26.5368 27.862 26.4516C27.9464 26.3663 28.0131 26.2652 28.0583 26.154C28.1035 26.0429 28.1261 25.9239 28.125 25.8039V25.8039V18.0039Z" stroke="#636363" stroke-linecap="round" stroke-linejoin="round"/>
<rect x="0.25" y="0.637207" width="39.5" height="39.5" rx="9.75" stroke="#636363" stroke-width="0.5"/>
</svg>
